<svg width="64" height="64" viewBox="0 0 64 64" fill="none" xmlns="http://www.w3.org/2000/svg">
<path d="M37.3333 9.33333C47.3899 9.33333 52.4184 9.33333 55.5424 12.6528C58.6667 15.9722 58.6667 21.3148 58.6667 32C58.6667 42.6851 58.6667 48.0277 55.5424 51.3472C52.4184 54.6667 47.3899 54.6667 37.3333 54.6667H26.6667C16.61 54.6667 11.5817 54.6667 8.45753 51.3472C5.33334 48.0277 5.33334 42.6851 5.33334 32C5.33334 21.3148 5.33334 15.9722 8.45753 12.6528C11.5817 9.33333 16.61 9.33333 26.6667 9.33333H37.3333Z" stroke="#BDBDBD" stroke-width="4" stroke-linejoin="round"/>
<path d="M13.3333 41.3333C17.6231 35.6336 27.6104 35.3227 32 41.3333M27.3307 27.3336C27.3307 29.9109 25.2414 32.0003 22.6641 32.0003C20.0868 32.0003 17.9974 29.9109 17.9974 27.3336C17.9974 24.7563 20.0868 22.667 22.6641 22.667C25.2414 22.667 27.3307 24.7563 27.3307 27.3336Z" stroke="#BDBDBD" stroke-width="4" stroke-linecap="round"/>
<path d="M40 25.3333H50.6667" stroke="#BDBDBD" stroke-width="4" stroke-linecap="round"/>
<path d="M40 36H45.3333" stroke="#BDBDBD" stroke-width="4" stroke-linecap="round"/>
</svg>
