<svg width="375" height="667" viewBox="0 0 375 667" fill="none" xmlns="http://www.w3.org/2000/svg">
<rect width="375" height="667" fill="white"/>
<path d="M26.9 488L25.74 484.86H20.02L18.86 488H16.36L21.6 474H24.16L29.4 488H26.9ZM20.84 482.66H24.92L22.88 477.16L20.84 482.66ZM30.9695 488V478.02H32.9495L33.2895 479.18C33.7095 478.46 34.5495 477.74 35.8095 477.74C36.6095 477.74 37.2095 477.98 37.5295 478.22L36.6695 480.32C36.4695 480.16 36.0495 479.98 35.4695 479.98C34.3095 479.98 33.3695 480.9 33.3695 482.56V488H30.9695ZM47.6528 483.8H40.1928C40.2928 485.06 41.3728 486.3 42.9528 486.3C44.3528 486.3 45.1528 485.46 45.3928 484.78L47.4128 485.4C46.8328 487 45.3928 488.28 42.9528 488.28C40.0928 488.28 37.8928 486.08 37.8928 483C37.8928 479.98 40.0928 477.74 42.9328 477.74C45.8328 477.74 47.6528 479.84 47.6528 482.88V483.8ZM45.5328 481.96C45.4728 481.06 44.6728 479.72 42.9528 479.72C41.3328 479.72 40.4328 480.82 40.2128 481.96H45.5328ZM61.9473 478.02H64.3473V487.62C64.3473 490.42 62.6073 492.28 59.5873 492.28C57.0673 492.28 55.7073 490.88 55.2273 489.1L57.4673 488.64C57.6673 489.62 58.3273 490.22 59.5873 490.22C61.0473 490.22 61.9473 489.32 61.9473 487.64V486.58L61.9273 486.52C61.2473 487.34 60.4273 487.9 58.9073 487.9C56.7273 487.9 55.2673 486.62 55.2673 483.7V478.02H57.6673V483.3C57.6673 485.1 58.4673 485.66 59.6673 485.66C60.9673 485.66 61.9473 484.8 61.9473 483.12V478.02ZM71.4127 488.28C68.3927 488.28 66.2327 485.96 66.2327 483C66.2327 480.06 68.4327 477.74 71.4127 477.74C74.4127 477.74 76.6127 480.06 76.6127 483C76.6127 485.96 74.4127 488.28 71.4127 488.28ZM71.4127 486.06C73.0127 486.06 74.2127 484.78 74.2127 483C74.2127 481.24 73.0127 479.96 71.4127 479.96C69.7927 479.96 68.6327 481.24 68.6327 483C68.6327 484.78 69.7927 486.06 71.4127 486.06ZM87.5072 478.02V488H85.5272L85.1872 486.8C84.5672 487.62 83.6272 488.28 82.1472 488.28C79.8672 488.28 78.5672 486.96 78.5672 484.04V478.02H80.9672V483.72C80.9672 485.5 81.7872 486.04 82.9072 486.04C84.1272 486.04 85.1072 485.18 85.1072 483.48V478.02H87.5072ZM101 477.74C103.78 477.74 105.84 480.1 105.84 483.02C105.84 485.94 103.88 488.28 101.02 488.28C99.5003 488.28 98.4603 487.58 97.9203 486.88V492.02H95.5203V478.02H97.5003L97.8203 479.24C98.3203 478.56 99.3403 477.74 101 477.74ZM100.66 479.9C99.0603 479.9 97.9203 481.2 97.9203 483.02C97.9203 484.84 99.0603 486.12 100.66 486.12C102.26 486.12 103.44 484.82 103.44 483.02C103.44 481.2 102.26 479.9 100.66 479.9ZM107.805 488V474H110.205V488H107.805ZM115.55 488.28C113.67 488.28 112.13 487.1 112.13 485.2C112.13 483.74 112.89 482.34 116.07 481.9L118.21 481.6V481.48C118.21 480.34 117.65 479.66 116.37 479.66C115.11 479.66 114.55 480.26 114.39 481.28L112.27 480.76C112.81 478.78 114.07 477.74 116.45 477.74C118.67 477.74 120.61 478.84 120.61 481.44V488H118.59L118.33 487.1C117.93 487.66 117.15 488.28 115.55 488.28ZM116.19 486.34C117.27 486.34 118.21 485.7 118.21 484.5V483.34L116.23 483.64C114.99 483.82 114.43 484.24 114.43 485.06C114.43 485.82 115.09 486.34 116.19 486.34ZM122.805 488V478.02H124.785L125.125 479.22C125.745 478.4 126.685 477.74 128.165 477.74C130.425 477.74 131.745 479.04 131.745 481.96V488H129.345V482.28C129.345 480.52 128.525 479.96 127.405 479.96C126.185 479.96 125.205 480.82 125.205 482.52V488H122.805ZM134.153 488V478.02H136.133L136.473 479.22C137.093 478.4 138.033 477.74 139.513 477.74C141.773 477.74 143.093 479.04 143.093 481.96V488H140.693V482.28C140.693 480.52 139.873 479.96 138.753 479.96C137.533 479.96 136.553 480.82 136.553 482.52V488H134.153ZM146.741 476.66C145.961 476.66 145.341 476.02 145.341 475.24C145.341 474.46 145.961 473.82 146.741 473.82C147.521 473.82 148.181 474.46 148.181 475.24C148.181 476.02 147.521 476.66 146.741 476.66ZM145.581 488V478.02H147.981V488H145.581ZM150.462 488V478.02H152.442L152.782 479.22C153.402 478.4 154.342 477.74 155.822 477.74C158.082 477.74 159.402 479.04 159.402 481.96V488H157.002V482.28C157.002 480.52 156.182 479.96 155.062 479.96C153.842 479.96 152.862 480.82 152.862 482.52V488H150.462ZM166.429 492.28C163.749 492.28 162.309 490.88 161.809 489.04L164.049 488.54C164.289 489.56 165.029 490.24 166.429 490.24C168.109 490.24 169.129 489.34 169.129 487.66V486.44C168.689 487.18 167.649 487.92 166.129 487.92C163.329 487.92 161.369 485.74 161.369 482.84C161.369 479.96 163.369 477.74 166.109 477.74C167.709 477.74 168.709 478.54 169.129 479.22L169.569 478.02H171.529V487.62C171.529 490.42 169.669 492.28 166.429 492.28ZM166.469 485.76C168.009 485.76 169.129 484.62 169.129 482.84C169.129 481.04 167.989 479.9 166.449 479.9C164.889 479.9 163.769 481.04 163.769 482.84C163.769 484.62 164.909 485.76 166.469 485.76ZM183.284 488.28C181.744 488.28 180.464 487.28 180.464 485.32V480.12H178.744V478.02H180.464V475.42H182.864V478.02H185.404V480.12H182.864V484.98C182.864 485.72 183.204 486.04 183.804 486.04C184.244 486.04 184.544 485.86 184.724 485.7L185.724 487.4C185.444 487.74 184.664 488.28 183.284 488.28ZM191.491 488.28C188.471 488.28 186.311 485.96 186.311 483C186.311 480.06 188.511 477.74 191.491 477.74C194.491 477.74 196.691 480.06 196.691 483C196.691 485.96 194.491 488.28 191.491 488.28ZM191.491 486.06C193.091 486.06 194.291 484.78 194.291 483C194.291 481.24 193.091 479.96 191.491 479.96C189.871 479.96 188.711 481.24 188.711 483C188.711 484.78 189.871 486.06 191.491 486.06ZM209.731 488.28C208.071 488.28 207.051 487.44 206.551 486.78L206.231 488H204.251V474H206.651V479.14C207.191 478.44 208.231 477.74 209.751 477.74C212.611 477.74 214.571 480.08 214.571 483C214.571 485.92 212.511 488.28 209.731 488.28ZM209.391 486.12C210.991 486.12 212.171 484.82 212.171 483C212.171 481.2 210.991 479.9 209.391 479.9C207.791 479.9 206.651 481.18 206.651 483C206.651 484.82 207.791 486.12 209.391 486.12ZM225.476 478.02V488H223.496L223.156 486.8C222.536 487.62 221.596 488.28 220.116 488.28C217.836 488.28 216.536 486.96 216.536 484.04V478.02H218.936V483.72C218.936 485.5 219.756 486.04 220.876 486.04C222.096 486.04 223.076 485.18 223.076 483.48V478.02H225.476ZM234.604 478.02H237.004V487.62C237.004 490.42 235.264 492.28 232.244 492.28C229.724 492.28 228.364 490.88 227.884 489.1L230.124 488.64C230.324 489.62 230.984 490.22 232.244 490.22C233.704 490.22 234.604 489.32 234.604 487.64V486.58L234.584 486.52C233.904 487.34 233.084 487.9 231.564 487.9C229.384 487.9 227.924 486.62 227.924 483.7V478.02H230.324V483.3C230.324 485.1 231.124 485.66 232.324 485.66C233.624 485.66 234.604 484.8 234.604 483.12V478.02ZM249.753 488.28C246.733 488.28 244.573 485.96 244.573 483C244.573 480.06 246.773 477.74 249.753 477.74C252.753 477.74 254.953 480.06 254.953 483C254.953 485.96 252.753 488.28 249.753 488.28ZM249.753 486.06C251.353 486.06 252.553 484.78 252.553 483C252.553 481.24 251.353 479.96 249.753 479.96C248.133 479.96 246.973 481.24 246.973 483C246.973 484.78 248.133 486.06 249.753 486.06ZM256.907 488V478.02H258.887L259.227 479.22C259.847 478.4 260.787 477.74 262.267 477.74C264.527 477.74 265.847 479.04 265.847 481.96V488H263.447V482.28C263.447 480.52 262.627 479.96 261.507 479.96C260.287 479.96 259.307 480.82 259.307 482.52V488H256.907ZM280.58 478.02H282.98V487.62C282.98 490.42 281.24 492.28 278.22 492.28C275.7 492.28 274.34 490.88 273.86 489.1L276.1 488.64C276.3 489.62 276.96 490.22 278.22 490.22C279.68 490.22 280.58 489.32 280.58 487.64V486.58L280.56 486.52C279.88 487.34 279.06 487.9 277.54 487.9C275.36 487.9 273.9 486.62 273.9 483.7V478.02H276.3V483.3C276.3 485.1 277.1 485.66 278.3 485.66C279.6 485.66 280.58 484.8 280.58 483.12V478.02ZM290.045 488.28C287.025 488.28 284.865 485.96 284.865 483C284.865 480.06 287.065 477.74 290.045 477.74C293.045 477.74 295.245 480.06 295.245 483C295.245 485.96 293.045 488.28 290.045 488.28ZM290.045 486.06C291.645 486.06 292.845 484.78 292.845 483C292.845 481.24 291.645 479.96 290.045 479.96C288.425 479.96 287.265 481.24 287.265 483C287.265 484.78 288.425 486.06 290.045 486.06ZM306.14 478.02V488H304.16L303.82 486.8C303.2 487.62 302.26 488.28 300.78 488.28C298.5 488.28 297.2 486.96 297.2 484.04V478.02H299.6V483.72C299.6 485.5 300.42 486.04 301.54 486.04C302.76 486.04 303.74 485.18 303.74 483.48V478.02H306.14ZM308.548 488V478.02H310.528L310.868 479.18C311.288 478.46 312.128 477.74 313.388 477.74C314.188 477.74 314.788 477.98 315.108 478.22L314.248 480.32C314.048 480.16 313.628 479.98 313.048 479.98C311.888 479.98 310.948 480.9 310.948 482.56V488H308.548ZM21.94 516.28C18.92 516.28 16.76 513.96 16.76 511C16.76 508.06 18.96 505.74 21.94 505.74C24.94 505.74 27.14 508.06 27.14 511C27.14 513.96 24.94 516.28 21.94 516.28ZM21.94 514.06C23.54 514.06 24.74 512.78 24.74 511C24.74 509.24 23.54 507.96 21.94 507.96C20.32 507.96 19.16 509.24 19.16 511C19.16 512.78 20.32 514.06 21.94 514.06ZM40.482 506.02H42.882L39.782 516H37.342L35.382 509.08L33.422 516H30.962L27.862 506.02H30.262L32.242 513.2L34.262 506.02H36.502L38.522 513.16L40.482 506.02ZM44.368 516V506.02H46.348L46.688 507.22C47.308 506.4 48.248 505.74 49.728 505.74C51.988 505.74 53.308 507.04 53.308 509.96V516H50.908V510.28C50.908 508.52 50.088 507.96 48.968 507.96C47.748 507.96 46.768 508.82 46.768 510.52V516H44.368ZM66.0611 516.28C63.0411 516.28 60.8811 513.96 60.8811 511C60.8811 508.06 63.0811 505.74 66.0611 505.74C69.0611 505.74 71.2611 508.06 71.2611 511C71.2611 513.96 69.0611 516.28 66.0611 516.28ZM66.0611 514.06C67.6611 514.06 68.8611 512.78 68.8611 511C68.8611 509.24 67.6611 507.96 66.0611 507.96C64.4411 507.96 63.2811 509.24 63.2811 511C63.2811 512.78 64.4411 514.06 66.0611 514.06ZM73.2156 516V506.02H75.1956L75.5356 507.18C75.9556 506.46 76.7956 505.74 78.0556 505.74C78.8556 505.74 79.4556 505.98 79.7756 506.22L78.9156 508.32C78.7156 508.16 78.2956 507.98 77.7156 507.98C76.5556 507.98 75.6156 508.9 75.6156 510.56V516H73.2156ZM98.4117 506.02H100.812L97.7117 516H95.2717L93.3117 509.08L91.3517 516H88.8917L85.7917 506.02H88.1917L90.1717 513.2L92.1917 506.02H94.4317L96.4517 513.16L98.4117 506.02ZM103.538 504.66C102.758 504.66 102.138 504.02 102.138 503.24C102.138 502.46 102.758 501.82 103.538 501.82C104.318 501.82 104.978 502.46 104.978 503.24C104.978 504.02 104.318 504.66 103.538 504.66ZM102.378 516V506.02H104.778V516H102.378ZM110.999 516.28C109.459 516.28 108.179 515.28 108.179 513.32V508.12H106.459V506.02H108.179V503.42H110.579V506.02H113.119V508.12H110.579V512.98C110.579 513.72 110.919 514.04 111.519 514.04C111.959 514.04 112.259 513.86 112.439 513.7L113.439 515.4C113.159 515.74 112.379 516.28 110.999 516.28ZM114.954 516V502H117.334V507.12C117.974 506.32 118.894 505.74 120.294 505.74C122.554 505.74 123.854 507.04 123.854 509.96V516H121.474V510.32C121.474 508.52 120.654 507.98 119.534 507.98C118.314 507.98 117.334 508.84 117.334 510.54V516H114.954ZM135.588 516.28C133.408 516.28 131.928 515.16 131.428 513.3L133.548 512.62C133.788 513.5 134.308 514.28 135.588 514.28C136.668 514.28 137.368 513.86 137.368 513.14C137.368 512.64 137.048 512.22 135.528 511.96C133.448 511.58 131.708 510.94 131.708 508.86C131.708 507.14 133.168 505.74 135.588 505.74C137.588 505.74 138.968 506.8 139.388 508.6L137.288 509.2C137.108 508.48 136.688 507.74 135.588 507.74C134.448 507.74 133.948 508.24 133.948 508.76C133.948 509.44 134.668 509.68 135.948 509.92C138.168 510.32 139.628 511.1 139.628 513.1C139.628 514.88 138.048 516.28 135.588 516.28ZM146.335 516.28C143.315 516.28 141.155 513.96 141.155 511C141.155 508.06 143.355 505.74 146.335 505.74C149.335 505.74 151.535 508.06 151.535 511C151.535 513.96 149.335 516.28 146.335 516.28ZM146.335 514.06C147.935 514.06 149.135 512.78 149.135 511C149.135 509.24 147.935 507.96 146.335 507.96C144.715 507.96 143.555 509.24 143.555 511C143.555 512.78 144.715 514.06 146.335 514.06ZM153.489 516V506.02H155.469L155.789 507.2C156.389 506.4 157.449 505.74 158.869 505.74C160.369 505.74 161.169 506.46 161.569 507.24C162.189 506.44 163.229 505.74 164.769 505.74C166.629 505.74 167.989 506.84 167.989 509.4V516H165.589V510.06C165.589 508.54 164.929 507.96 163.889 507.96C162.789 507.96 161.949 508.76 161.949 510.34V516H159.549V510.06C159.549 508.54 158.829 507.96 157.829 507.96C156.749 507.96 155.889 508.74 155.889 510.34V516H153.489ZM179.704 511.8H172.244C172.344 513.06 173.424 514.3 175.004 514.3C176.404 514.3 177.204 513.46 177.444 512.78L179.464 513.4C178.884 515 177.444 516.28 175.004 516.28C172.144 516.28 169.944 514.08 169.944 511C169.944 507.98 172.144 505.74 174.984 505.74C177.884 505.74 179.704 507.84 179.704 510.88V511.8ZM177.584 509.96C177.524 509.06 176.724 507.72 175.004 507.72C173.384 507.72 172.484 508.82 172.264 509.96H177.584ZM186.413 516.28C183.393 516.28 181.233 513.96 181.233 511C181.233 508.06 183.433 505.74 186.413 505.74C189.413 505.74 191.613 508.06 191.613 511C191.613 513.96 189.413 516.28 186.413 516.28ZM186.413 514.06C188.013 514.06 189.213 512.78 189.213 511C189.213 509.24 188.013 507.96 186.413 507.96C184.793 507.96 183.633 509.24 183.633 511C183.633 512.78 184.793 514.06 186.413 514.06ZM193.567 516V506.02H195.547L195.887 507.22C196.507 506.4 197.447 505.74 198.927 505.74C201.187 505.74 202.507 507.04 202.507 509.96V516H200.107V510.28C200.107 508.52 199.287 507.96 198.167 507.96C196.947 507.96 195.967 508.82 195.967 510.52V516H193.567ZM214.235 511.8H206.775C206.875 513.06 207.955 514.3 209.535 514.3C210.935 514.3 211.735 513.46 211.975 512.78L213.995 513.4C213.415 515 211.975 516.28 209.535 516.28C206.675 516.28 204.475 514.08 204.475 511C204.475 507.98 206.675 505.74 209.515 505.74C212.415 505.74 214.235 507.84 214.235 510.88V511.8ZM212.115 509.96C212.055 509.06 211.255 507.72 209.535 507.72C207.915 507.72 207.015 508.82 206.795 509.96H212.115ZM231.129 511.8H223.669C223.769 513.06 224.849 514.3 226.429 514.3C227.829 514.3 228.629 513.46 228.869 512.78L230.889 513.4C230.309 515 228.869 516.28 226.429 516.28C223.569 516.28 221.369 514.08 221.369 511C221.369 507.98 223.569 505.74 226.409 505.74C229.309 505.74 231.129 507.84 231.129 510.88V511.8ZM229.009 509.96C228.949 509.06 228.149 507.72 226.429 507.72C224.809 507.72 223.909 508.82 223.689 509.96H229.009ZM233.098 516V502H235.498V516H233.098ZM241.623 516.28C239.443 516.28 237.963 515.16 237.463 513.3L239.583 512.62C239.823 513.5 240.343 514.28 241.623 514.28C242.703 514.28 243.403 513.86 243.403 513.14C243.403 512.64 243.083 512.22 241.563 511.96C239.483 511.58 237.743 510.94 237.743 508.86C237.743 507.14 239.203 505.74 241.623 505.74C243.623 505.74 245.003 506.8 245.423 508.6L243.323 509.2C243.143 508.48 242.723 507.74 241.623 507.74C240.483 507.74 239.983 508.24 239.983 508.76C239.983 509.44 240.703 509.68 241.983 509.92C244.203 510.32 245.663 511.1 245.663 513.1C245.663 514.88 244.083 516.28 241.623 516.28ZM256.95 511.8H249.49C249.59 513.06 250.67 514.3 252.25 514.3C253.65 514.3 254.45 513.46 254.69 512.78L256.71 513.4C256.13 515 254.69 516.28 252.25 516.28C249.39 516.28 247.19 514.08 247.19 511C247.19 507.98 249.39 505.74 252.23 505.74C255.13 505.74 256.95 507.84 256.95 510.88V511.8ZM254.83 509.96C254.77 509.06 253.97 507.72 252.25 507.72C250.63 507.72 249.73 508.82 249.51 509.96H254.83ZM261.982 501.7C264.722 501.7 266.722 503.6 266.722 506.12C266.722 508.04 265.622 509.74 263.422 510.36V512.02H261.002V508.8H261.542C263.462 508.8 264.362 507.58 264.382 506.22C264.382 504.96 263.442 503.96 262.022 503.96C260.422 503.96 259.542 504.98 259.542 506.48L257.342 505.88C257.482 503.4 259.362 501.7 261.982 501.7ZM262.222 513.12C263.042 513.12 263.722 513.8 263.722 514.62C263.722 515.46 263.042 516.14 262.222 516.14C261.382 516.14 260.702 515.46 260.702 514.62C260.702 513.8 261.382 513.12 262.222 513.12Z" fill="#006179"/>
<rect x="16" y="539" width="343" height="48" rx="6" fill="#EBF3F5"/>
<path d="M29.377 569V557.1H33.593C35.922 557.1 36.976 558.511 36.976 560.228C36.976 561.452 36.364 562.319 35.531 562.795V562.829C36.296 563.101 37.435 563.849 37.435 565.634C37.435 567.504 36.126 569 33.814 569H29.377ZM30.703 562.37H33.559C34.953 562.37 35.667 561.503 35.667 560.245C35.667 559.038 34.851 558.273 33.559 558.273H30.703V562.37ZM30.703 567.827H33.831C35.344 567.827 36.109 566.824 36.109 565.634C36.109 564.461 35.378 563.509 33.593 563.509H30.703V567.827ZM46.419 560.67V569H45.331L45.127 567.878C44.464 568.779 43.529 569.238 42.339 569.238C40.707 569.238 39.483 568.303 39.483 566.127V560.67H40.775V565.821C40.775 567.589 41.659 568.031 42.747 568.031C43.954 568.031 45.127 567.062 45.127 565.413V560.67H46.419ZM54.6954 560.67H55.9874V569.017C55.9874 570.853 55.0354 572.774 52.3324 572.774C50.3094 572.774 49.2214 571.669 48.7964 570.122L50.0374 569.833C50.3094 570.972 51.0064 571.618 52.3324 571.618C53.9644 571.618 54.6954 570.581 54.6954 569.051V567.793L54.6784 567.708C53.9644 568.609 53.1824 569.051 51.8054 569.051C50.2924 569.051 48.8134 568.167 48.8134 565.991V560.67H50.1054V565.566C50.1054 567.334 50.9894 567.844 52.1794 567.844C53.5564 567.844 54.6954 566.875 54.6954 565.209V560.67ZM59.1405 559.327C58.5795 559.327 58.1545 558.902 58.1545 558.358C58.1545 557.814 58.5795 557.389 59.1405 557.389C59.6675 557.389 60.0925 557.814 60.0925 558.358C60.0925 558.902 59.6675 559.327 59.1405 559.327ZM58.4945 569V560.67H59.7865V569H58.4945ZM62.2603 569V560.67H63.3483L63.5353 561.792C64.1983 560.891 65.1333 560.432 66.3233 560.432C67.9723 560.432 69.1963 561.367 69.1963 563.543V569H67.9043V563.849C67.9043 562.081 67.0203 561.639 65.9323 561.639C64.7083 561.639 63.5523 562.608 63.5523 564.257V569H62.2603ZM75.2458 572.774C73.1038 572.774 71.9818 571.635 71.5568 570.105L72.7808 569.816C73.0698 570.938 73.8178 571.652 75.2458 571.652C77.1498 571.652 78.0168 570.615 78.0168 569.051V567.555C77.5408 568.354 76.5548 569.085 75.1268 569.085C72.4748 569.085 71.1658 566.909 71.1658 564.784C71.1658 562.659 72.5768 560.432 75.1098 560.432C76.5548 560.432 77.4728 561.078 78.0168 561.86L78.2208 560.67H79.3088V569.017C79.3088 570.853 78.2548 572.774 75.2458 572.774ZM75.2798 567.929C76.8948 567.929 78.0168 566.654 78.0168 564.784C78.0168 562.897 76.8778 561.588 75.2458 561.588C73.5628 561.588 72.4578 562.897 72.4578 564.784C72.4578 566.654 73.6138 567.929 75.2798 567.929ZM90.2908 569.238C87.5538 569.238 86.0408 567.011 86.0408 564.835C86.0408 562.642 87.6218 560.432 90.2908 560.432C93.0108 560.432 94.5748 562.642 94.5748 564.835C94.5748 567.011 93.0108 569.238 90.2908 569.238ZM90.2908 568.065C92.0588 568.065 93.2828 566.654 93.2828 564.835C93.2828 562.999 92.0588 561.605 90.2908 561.605C88.5398 561.605 87.3328 562.999 87.3328 564.835C87.3328 566.654 88.5398 568.065 90.2908 568.065ZM96.5425 569V560.67H97.6305L97.8175 561.792C98.4805 560.891 99.4155 560.432 100.606 560.432C102.255 560.432 103.479 561.367 103.479 563.543V569H102.187V563.849C102.187 562.081 101.303 561.639 100.215 561.639C98.9905 561.639 97.8345 562.608 97.8345 564.257V569H96.5425ZM110.621 569V560.67H111.709L111.879 561.809C112.525 560.908 113.426 560.432 114.599 560.432C115.789 560.432 116.622 561.01 117.013 561.877C117.659 560.993 118.611 560.432 119.92 560.432C121.399 560.432 122.657 561.333 122.657 563.407V569H121.365V563.9C121.365 562.132 120.583 561.639 119.512 561.639C118.339 561.639 117.285 562.557 117.285 564.274V569H115.993V563.9C115.993 562.132 115.143 561.639 114.157 561.639C113.001 561.639 111.913 562.54 111.913 564.274V569H110.621ZM130.93 560.67H132.222V569.017C132.222 570.853 131.27 572.774 128.567 572.774C126.544 572.774 125.456 571.669 125.031 570.122L126.272 569.833C126.544 570.972 127.241 571.618 128.567 571.618C130.199 571.618 130.93 570.581 130.93 569.051V567.793L130.913 567.708C130.199 568.609 129.417 569.051 128.04 569.051C126.527 569.051 125.048 568.167 125.048 565.991V560.67H126.34V565.566C126.34 567.334 127.224 567.844 128.414 567.844C129.791 567.844 130.93 566.875 130.93 565.209V560.67ZM143.217 569.238C140.48 569.238 138.967 567.011 138.967 564.835C138.967 562.642 140.548 560.432 143.217 560.432C145.937 560.432 147.501 562.642 147.501 564.835C147.501 567.011 145.937 569.238 143.217 569.238ZM143.217 568.065C144.985 568.065 146.209 566.654 146.209 564.835C146.209 562.999 144.985 561.605 143.217 561.605C141.466 561.605 140.259 562.999 140.259 564.835C140.259 566.654 141.466 568.065 143.217 568.065ZM159.01 560.67H160.319L157.752 569H156.426L154.369 562.302L152.312 569H150.952L148.385 560.67H149.694L151.649 567.385L153.655 560.67H155.032L157.055 567.351L159.01 560.67ZM161.82 569V560.67H162.908L163.095 561.792C163.758 560.891 164.693 560.432 165.883 560.432C167.532 560.432 168.756 561.367 168.756 563.543V569H167.464V563.849C167.464 562.081 166.58 561.639 165.492 561.639C164.268 561.639 163.112 562.608 163.112 564.257V569H161.82Z" fill="#006179"/>
<circle cx="335" cy="563" r="11" stroke="#006179" stroke-width="2"/>
<rect x="16" y="603" width="343" height="48" rx="6" fill="#EBF3F5"/>
<path d="M29.377 633V621.1H33.593C35.922 621.1 36.976 622.511 36.976 624.228C36.976 625.452 36.364 626.319 35.531 626.795V626.829C36.296 627.101 37.435 627.849 37.435 629.634C37.435 631.504 36.126 633 33.814 633H29.377ZM30.703 626.37H33.559C34.953 626.37 35.667 625.503 35.667 624.245C35.667 623.038 34.851 622.273 33.559 622.273H30.703V626.37ZM30.703 631.827H33.831C35.344 631.827 36.109 630.824 36.109 629.634C36.109 628.461 35.378 627.509 33.593 627.509H30.703V631.827ZM46.419 624.67V633H45.331L45.127 631.878C44.464 632.779 43.529 633.238 42.339 633.238C40.707 633.238 39.483 632.303 39.483 630.127V624.67H40.775V629.821C40.775 631.589 41.659 632.031 42.747 632.031C43.954 632.031 45.127 631.062 45.127 629.413V624.67H46.419ZM54.6954 624.67H55.9874V633.017C55.9874 634.853 55.0354 636.774 52.3324 636.774C50.3094 636.774 49.2214 635.669 48.7964 634.122L50.0374 633.833C50.3094 634.972 51.0064 635.618 52.3324 635.618C53.9644 635.618 54.6954 634.581 54.6954 633.051V631.793L54.6784 631.708C53.9644 632.609 53.1824 633.051 51.8054 633.051C50.2924 633.051 48.8134 632.167 48.8134 629.991V624.67H50.1054V629.566C50.1054 631.334 50.9894 631.844 52.1794 631.844C53.5564 631.844 54.6954 630.875 54.6954 629.209V624.67ZM59.1405 623.327C58.5795 623.327 58.1545 622.902 58.1545 622.358C58.1545 621.814 58.5795 621.389 59.1405 621.389C59.6675 621.389 60.0925 621.814 60.0925 622.358C60.0925 622.902 59.6675 623.327 59.1405 623.327ZM58.4945 633V624.67H59.7865V633H58.4945ZM62.2603 633V624.67H63.3483L63.5353 625.792C64.1983 624.891 65.1333 624.432 66.3233 624.432C67.9723 624.432 69.1963 625.367 69.1963 627.543V633H67.9043V627.849C67.9043 626.081 67.0203 625.639 65.9323 625.639C64.7083 625.639 63.5523 626.608 63.5523 628.257V633H62.2603ZM75.2458 636.774C73.1038 636.774 71.9818 635.635 71.5568 634.105L72.7808 633.816C73.0698 634.938 73.8178 635.652 75.2458 635.652C77.1498 635.652 78.0168 634.615 78.0168 633.051V631.555C77.5408 632.354 76.5548 633.085 75.1268 633.085C72.4748 633.085 71.1658 630.909 71.1658 628.784C71.1658 626.659 72.5768 624.432 75.1098 624.432C76.5548 624.432 77.4728 625.078 78.0168 625.86L78.2208 624.67H79.3088V633.017C79.3088 634.853 78.2548 636.774 75.2458 636.774ZM75.2798 631.929C76.8948 631.929 78.0168 630.654 78.0168 628.784C78.0168 626.897 76.8778 625.588 75.2458 625.588C73.5628 625.588 72.4578 626.897 72.4578 628.784C72.4578 630.654 73.6138 631.929 75.2798 631.929ZM96.1898 624.67H97.4988L94.9318 633H93.6058L91.5488 626.302L89.4918 633H88.1318L85.5648 624.67H86.8738L88.8288 631.385L90.8348 624.67H92.2118L94.2348 631.351L96.1898 624.67ZM99.7646 623.327C99.2036 623.327 98.7786 622.902 98.7786 622.358C98.7786 621.814 99.2036 621.389 99.7646 621.389C100.292 621.389 100.717 621.814 100.717 622.358C100.717 622.902 100.292 623.327 99.7646 623.327ZM99.1186 633V624.67H100.411V633H99.1186ZM105.638 633.238C104.397 633.238 103.581 632.439 103.581 631.079V625.843H102.034V624.67H103.581V622.494H104.873V624.67H107.27V625.843H104.873V630.96C104.873 631.742 105.23 632.031 105.842 632.031C106.25 632.031 106.556 631.844 106.709 631.708L107.372 632.609C107.168 632.864 106.59 633.238 105.638 633.238ZM109.01 633V621.1H110.302V625.775C110.948 624.891 111.9 624.432 113.073 624.432C114.705 624.432 115.929 625.367 115.929 627.543V633H114.637V627.849C114.637 626.081 113.77 625.639 112.682 625.639C111.458 625.639 110.302 626.608 110.302 628.274V633H109.01ZM126.081 633.238C124.33 633.238 123.157 632.405 122.664 630.688L123.837 630.314C124.075 631.096 124.5 632.099 126.081 632.099C127.203 632.099 128.036 631.64 128.036 630.756C128.036 630.28 127.934 629.685 126.098 629.379C124.432 629.09 123.004 628.546 123.004 626.88C123.004 625.282 124.432 624.432 126.081 624.432C127.815 624.432 128.852 625.367 129.209 626.897L128.019 627.203C127.849 626.336 127.288 625.571 126.081 625.571C124.636 625.571 124.245 626.285 124.245 626.863C124.245 627.696 125.146 627.968 126.319 628.189C128.036 628.495 129.294 629.107 129.294 630.739C129.294 632.269 127.832 633.238 126.081 633.238ZM135.115 633.238C132.378 633.238 130.865 631.011 130.865 628.835C130.865 626.642 132.446 624.432 135.115 624.432C137.835 624.432 139.399 626.642 139.399 628.835C139.399 631.011 137.835 633.238 135.115 633.238ZM135.115 632.065C136.883 632.065 138.107 630.654 138.107 628.835C138.107 626.999 136.883 625.605 135.115 625.605C133.364 625.605 132.157 626.999 132.157 628.835C132.157 630.654 133.364 632.065 135.115 632.065ZM141.367 633V624.67H142.455L142.625 625.809C143.271 624.908 144.172 624.432 145.345 624.432C146.535 624.432 147.368 625.01 147.759 625.877C148.405 624.993 149.357 624.432 150.666 624.432C152.145 624.432 153.403 625.333 153.403 627.407V633H152.111V627.9C152.111 626.132 151.329 625.639 150.258 625.639C149.085 625.639 148.031 626.557 148.031 628.274V633H146.739V627.9C146.739 626.132 145.889 625.639 144.903 625.639C143.747 625.639 142.659 626.54 142.659 628.274V633H141.367ZM163.41 629.192H156.644C156.712 630.841 157.851 632.133 159.517 632.133C160.843 632.133 161.761 631.368 162.033 630.518L163.172 630.875C162.747 632.099 161.523 633.238 159.517 633.238C156.967 633.238 155.369 631.249 155.369 628.835C155.369 626.438 157.12 624.432 159.5 624.432C161.829 624.449 163.41 626.081 163.41 628.631V629.192ZM162.203 628.121C162.101 626.676 161.03 625.537 159.517 625.537C157.868 625.537 156.865 626.71 156.661 628.121H162.203ZM169.231 633.238C166.494 633.238 164.981 631.011 164.981 628.835C164.981 626.642 166.562 624.432 169.231 624.432C171.951 624.432 173.515 626.642 173.515 628.835C173.515 631.011 171.951 633.238 169.231 633.238ZM169.231 632.065C170.999 632.065 172.223 630.654 172.223 628.835C172.223 626.999 170.999 625.605 169.231 625.605C167.48 625.605 166.273 626.999 166.273 628.835C166.273 630.654 167.48 632.065 169.231 632.065ZM175.483 633V624.67H176.571L176.758 625.792C177.421 624.891 178.356 624.432 179.546 624.432C181.195 624.432 182.419 625.367 182.419 627.543V633H181.127V627.849C181.127 626.081 180.243 625.639 179.155 625.639C177.931 625.639 176.775 626.608 176.775 628.257V633H175.483ZM192.429 629.192H185.663C185.731 630.841 186.87 632.133 188.536 632.133C189.862 632.133 190.78 631.368 191.052 630.518L192.191 630.875C191.766 632.099 190.542 633.238 188.536 633.238C185.986 633.238 184.388 631.249 184.388 628.835C184.388 626.438 186.139 624.432 188.519 624.432C190.848 624.449 192.429 626.081 192.429 628.631V629.192ZM191.222 628.121C191.12 626.676 190.049 625.537 188.536 625.537C186.887 625.537 185.884 626.71 185.68 628.121H191.222ZM206.806 629.192H200.04C200.108 630.841 201.247 632.133 202.913 632.133C204.239 632.133 205.157 631.368 205.429 630.518L206.568 630.875C206.143 632.099 204.919 633.238 202.913 633.238C200.363 633.238 198.765 631.249 198.765 628.835C198.765 626.438 200.516 624.432 202.896 624.432C205.225 624.449 206.806 626.081 206.806 628.631V629.192ZM205.599 628.121C205.497 626.676 204.426 625.537 202.913 625.537C201.264 625.537 200.261 626.71 200.057 628.121H205.599ZM208.786 633V621.1H210.078V633H208.786ZM215.464 633.238C213.713 633.238 212.54 632.405 212.047 630.688L213.22 630.314C213.458 631.096 213.883 632.099 215.464 632.099C216.586 632.099 217.419 631.64 217.419 630.756C217.419 630.28 217.317 629.685 215.481 629.379C213.815 629.09 212.387 628.546 212.387 626.88C212.387 625.282 213.815 624.432 215.464 624.432C217.198 624.432 218.235 625.367 218.592 626.897L217.402 627.203C217.232 626.336 216.671 625.571 215.464 625.571C214.019 625.571 213.628 626.285 213.628 626.863C213.628 627.696 214.529 627.968 215.702 628.189C217.419 628.495 218.677 629.107 218.677 630.739C218.677 632.269 217.215 633.238 215.464 633.238ZM228.289 629.192H221.523C221.591 630.841 222.73 632.133 224.396 632.133C225.722 632.133 226.64 631.368 226.912 630.518L228.051 630.875C227.626 632.099 226.402 633.238 224.396 633.238C221.846 633.238 220.248 631.249 220.248 628.835C220.248 626.438 221.999 624.432 224.379 624.432C226.708 624.449 228.289 626.081 228.289 628.631V629.192ZM227.082 628.121C226.98 626.676 225.909 625.537 224.396 625.537C222.747 625.537 221.744 626.71 221.54 628.121H227.082Z" fill="#006179"/>
<circle cx="335" cy="627" r="11" stroke="#006179" stroke-width="2"/>
<rect width="375" height="68" fill="white"/>
<g clip-path="url(#clip0_1_5092)">
<path fill-rule="evenodd" clip-rule="evenodd" d="M20.5 4H21.5C22.0523 4 22.5 4.44772 22.5 5V13C22.5 13.5523 22.0523 14 21.5 14H20.5C19.9477 14 19.5 13.5523 19.5 13V5C19.5 4.44772 19.9477 4 20.5 4Z" fill="black"/>
<path d="M17 6H16C15.4477 6 15 6.44772 15 7V13C15 13.5523 15.4477 14 16 14H17C17.5523 14 18 13.5523 18 13V7C18 6.44772 17.5523 6 17 6Z" fill="black"/>
<path d="M11.5 8H12.5C13.0523 8 13.5 8.44772 13.5 9V13C13.5 13.5523 13.0523 14 12.5 14H11.5C10.9477 14 10.5 13.5523 10.5 13V9C10.5 8.44772 10.9477 8 11.5 8Z" fill="black"/>
<path d="M7 9.5H8C8.55228 9.5 9 9.94772 9 10.5V13C9 13.5523 8.55228 14 8 14H7C6.44772 14 6 13.5523 6 13V10.5C6 9.94772 6.44772 9.5 7 9.5Z" fill="black"/>
<path d="M38.4102 13V4.54492H37.1855L34.291 11.5996H34.1973L31.3027 4.54492H30.0781V13H31.0625V6.54297H31.1328L33.7988 13H34.6895L37.3555 6.54297H37.4258V13H38.4102ZM43.8152 13C45.6141 13 46.6805 12.1152 46.6805 10.627C46.6805 9.50781 45.948 8.7168 44.7937 8.57031V8.47656C45.6082 8.33008 46.2527 7.5332 46.2527 6.6543C46.2527 5.35938 45.3035 4.54492 43.7508 4.54492H40.5164V13H43.8152ZM41.5711 5.47656H43.5281C44.577 5.47656 45.1863 5.97461 45.1863 6.83594C45.1863 7.73242 44.5359 8.18945 43.2586 8.18945H41.5711V5.47656ZM41.5711 12.0684V9.09766H43.5574C44.9051 9.09766 45.5965 9.5957 45.5965 10.5742C45.5965 11.5527 44.9285 12.0684 43.657 12.0684H41.5711ZM52.027 10.0762V9.12109H48.1832V10.0762H52.027ZM53.9633 4.54492V13H56.8637C59.3773 13 60.8539 11.4355 60.8539 8.76953C60.8539 6.10938 59.3715 4.54492 56.8637 4.54492H53.9633ZM55.018 5.49414H56.7934C58.6684 5.49414 59.7758 6.71289 59.7758 8.78125C59.7758 10.8438 58.6801 12.0508 56.7934 12.0508H55.018V5.49414ZM62.2277 10.791C62.3391 12.25 63.5754 13.1992 65.3684 13.1992C67.302 13.1992 68.5266 12.209 68.5266 10.6562C68.5266 9.41406 67.8234 8.73438 66.0715 8.29492L65.1867 8.06055C64.0207 7.76172 63.5578 7.38086 63.5578 6.71875C63.5578 5.86328 64.302 5.30078 65.427 5.30078C66.4816 5.30078 67.1965 5.81641 67.343 6.68359H68.4035C68.3156 5.31836 67.0969 4.3457 65.4621 4.3457C63.675 4.3457 62.4738 5.31836 62.4738 6.75391C62.4738 7.95508 63.1359 8.64648 64.6652 9.0332L65.7492 9.31445C66.9152 9.60742 67.4426 10.0645 67.4426 10.7852C67.4426 11.623 66.6047 12.2383 65.468 12.2383C64.2668 12.2383 63.423 11.6758 63.2941 10.791H62.2277Z" fill="black"/>
<path fill-rule="evenodd" clip-rule="evenodd" d="M87.9828 6.52294C86.0717 4.89057 83.6574 4 81.1327 4C78.6006 4 76.1795 4.89589 74.2661 6.53708L74.1036 6.67646C73.9722 6.78918 73.9647 6.98954 74.0873 7.11176L75.2142 8.23557C75.3236 8.34466 75.4985 8.3521 75.6168 8.2527L75.7564 8.13541C77.2633 6.86943 79.1552 6.18035 81.1327 6.18035C83.1035 6.18035 84.9894 6.86472 86.494 8.12283L86.6336 8.23952C86.7519 8.33847 86.9264 8.33084 87.0356 8.22195L88.1627 7.09797C88.2855 6.97558 88.2777 6.77488 88.1459 6.66228L87.9828 6.52294ZM81.1327 7.46979C82.7236 7.46979 84.251 7.99754 85.4953 8.97486L85.6711 9.11298C85.8113 9.2231 85.8236 9.43059 85.6974 9.55643L84.5667 10.6841C84.4621 10.7884 84.2966 10.8003 84.178 10.7122L84.0401 10.6098C83.1997 9.98518 82.1864 9.65015 81.1327 9.65015C80.0726 9.65015 79.0533 9.98934 78.2101 10.6211L78.0721 10.7245C77.9535 10.8133 77.7874 10.8016 77.6825 10.697L76.5522 9.56981C76.4262 9.44423 76.4382 9.23727 76.5777 9.12694L76.7526 8.98871C77.9998 8.00267 79.5342 7.46979 81.1327 7.46979ZM81.1327 10.9396C81.7722 10.9396 82.3936 11.1076 82.9411 11.4281L83.163 11.5579C83.3311 11.6563 83.3607 11.8867 83.2228 12.0242L81.3287 13.913C81.2124 14.029 81.0238 14.029 80.9074 13.913L79.0255 12.0363C78.8882 11.8994 78.9169 11.6702 79.0836 11.5711L79.303 11.4406C79.8555 11.1121 80.4848 10.9396 81.1327 10.9396Z" fill="black"/>
</g>
<path d="M164.424 13.2051C166.574 13.2051 167.852 11.5234 167.852 8.67578C167.852 5.88086 166.492 4.33398 164.471 4.33398C162.631 4.33398 161.33 5.57031 161.33 7.30469C161.33 8.92773 162.502 10.1113 164.113 10.1113C165.104 10.1113 165.906 9.6543 166.305 8.85156H166.404C166.387 10.8086 165.678 11.9395 164.441 11.9395C163.715 11.9395 163.135 11.5469 162.953 10.9141H161.447C161.693 12.2969 162.877 13.2051 164.424 13.2051ZM164.477 8.91602C163.492 8.91602 162.812 8.23633 162.812 7.25781C162.812 6.31445 163.527 5.59375 164.482 5.59375C165.438 5.59375 166.152 6.32617 166.152 7.28711C166.152 8.23047 165.455 8.91602 164.477 8.91602ZM170.506 11.834C171.062 11.834 171.443 11.4355 171.443 10.9082C171.443 10.375 171.062 9.98242 170.506 9.98242C169.955 9.98242 169.568 10.375 169.568 10.9082C169.568 11.4355 169.955 11.834 170.506 11.834ZM170.506 7.55664C171.062 7.55664 171.443 7.16406 171.443 6.63672C171.443 6.10352 171.062 5.71094 170.506 5.71094C169.955 5.71094 169.568 6.10352 169.568 6.63672C169.568 7.16406 169.955 7.55664 170.506 7.55664ZM177.285 13H178.732V11.3887H179.875V10.1113H178.732V4.54492H176.6C175.451 6.29102 174.25 8.21875 173.154 10.1289V11.3887H177.285V13ZM174.555 10.0645C175.381 8.64062 176.359 7.08789 177.227 5.77539H177.309V10.1465H174.555V10.0645ZM183.338 13H184.85V4.54492H183.344L181.135 6.0918V7.54492L183.238 6.06836H183.338V13ZM196.064 13H197.688L194.682 4.54492H192.982L189.982 13H191.512L192.238 10.8379H195.35L196.064 13ZM193.75 6.15625H193.85L194.998 9.64258H192.59L193.75 6.15625ZM207.871 13V4.54492H206.102L203.559 10.7441H203.453L200.91 4.54492H199.141V13H200.547V7.05273H200.629L202.967 12.707H204.045L206.383 7.05273H206.465V13H207.871Z" fill="black"/>
<path opacity="0.35" fill-rule="evenodd" clip-rule="evenodd" d="M347 3.47241H366C367.381 3.47241 368.5 4.5711 368.5 5.9264V12.3068C368.5 13.6621 367.381 14.7608 366 14.7608H347C345.619 14.7608 344.5 13.6621 344.5 12.3068V5.9264C344.5 4.5711 345.619 3.47241 347 3.47241ZM347 4.45399C346.172 4.45399 345.5 5.1132 345.5 5.92638V12.3068C345.5 13.1199 346.172 13.7792 347 13.7792H366C366.828 13.7792 367.5 13.1199 367.5 12.3068V5.92638C367.5 5.1132 366.828 4.45399 366 4.45399H347Z" fill="black"/>
<path opacity="0.4" fill-rule="evenodd" clip-rule="evenodd" d="M369.5 6.71143C370.39 7.15823 371 8.06747 371 9.11648C371 10.1655 370.39 11.0747 369.5 11.5215V6.71143Z" fill="black"/>
<path fill-rule="evenodd" clip-rule="evenodd" d="M347.5 5.43555H365.5C366.052 5.43555 366.5 5.87502 366.5 6.41714V11.8159C366.5 12.358 366.052 12.7975 365.5 12.7975H347.5C346.948 12.7975 346.5 12.358 346.5 11.8159V6.41714C346.5 5.87502 346.948 5.43555 347.5 5.43555Z" fill="black"/>
<path d="M313.668 13.2946H314.723V4.83948H313.674L311.424 6.45667V7.56995L313.574 6.01135H313.668V13.2946ZM320.09 13.4938C321.988 13.4938 323.078 11.8883 323.078 9.08167C323.078 6.28088 321.971 4.64026 320.09 4.64026C318.197 4.64026 317.09 6.27502 317.09 9.06409C317.09 11.8766 318.186 13.4938 320.09 13.4938ZM320.09 12.5739C318.842 12.5739 318.15 11.3258 318.15 9.06409C318.15 6.83167 318.854 5.56604 320.09 5.56604C321.326 5.56604 322.018 6.81995 322.018 9.06409C322.018 11.3317 321.338 12.5739 320.09 12.5739ZM327.648 13.4938C329.547 13.4938 330.637 11.8883 330.637 9.08167C330.637 6.28088 329.529 4.64026 327.648 4.64026C325.756 4.64026 324.648 6.27502 324.648 9.06409C324.648 11.8766 325.744 13.4938 327.648 13.4938ZM327.648 12.5739C326.4 12.5739 325.709 11.3258 325.709 9.06409C325.709 6.83167 326.412 5.56604 327.648 5.56604C328.885 5.56604 329.576 6.81995 329.576 9.06409C329.576 11.3317 328.896 12.5739 327.648 12.5739ZM333.637 8.66565C334.779 8.66565 335.471 7.92151 335.471 6.67346C335.471 5.44299 334.773 4.68713 333.637 4.68713C332.5 4.68713 331.797 5.44299 331.797 6.67346C331.797 7.91565 332.488 8.66565 333.637 8.66565ZM333.637 7.89807C333.045 7.89807 332.705 7.45276 332.705 6.67932C332.705 5.91174 333.045 5.46057 333.637 5.46057C334.223 5.46057 334.562 5.91174 334.562 6.67932C334.562 7.4469 334.229 7.89807 333.637 7.89807ZM334.018 13.2946L339.859 4.83948H338.904L333.062 13.2946H334.018ZM339.291 13.3766C340.434 13.3766 341.125 12.6324 341.125 11.3844C341.125 10.1539 340.428 9.39807 339.291 9.39807C338.154 9.39807 337.451 10.1539 337.451 11.3844C337.451 12.6266 338.148 13.3766 339.291 13.3766ZM339.291 12.609C338.699 12.609 338.365 12.1637 338.365 11.3903C338.365 10.6227 338.699 10.1715 339.291 10.1715C339.883 10.1715 340.217 10.6227 340.217 11.3903C340.217 12.1578 339.883 12.609 339.291 12.609Z" fill="black"/>
<path fill-rule="evenodd" clip-rule="evenodd" d="M282.769 6.60588C282.6 6.38162 282.5 6.10411 282.5 5.80367C282.5 5.05826 283.116 4.45398 283.875 4.45398C284.147 4.45398 284.401 4.53175 284.615 4.6659C283.844 5.14694 283.207 5.81538 282.769 6.60588ZM291.87 9.12147C291.87 11.4932 289.911 13.4159 287.495 13.4159C285.079 13.4159 283.12 11.4932 283.12 9.12147C283.12 6.74969 285.079 4.82699 287.495 4.82699C289.911 4.82699 291.87 6.74969 291.87 9.12147ZM287.88 9.73006H285.75V8.98895H287.13V6.41717H287.88V9.73006ZM291.125 4.45398C290.85 4.45398 290.595 4.53296 290.38 4.66904C291.151 5.1514 291.788 5.8214 292.225 6.6135C292.398 6.38792 292.5 6.10752 292.5 5.80367C292.5 5.05826 291.884 4.45398 291.125 4.45398Z" fill="black"/>
<path fill-rule="evenodd" clip-rule="evenodd" d="M301.5 8.85484V8.84289L298.544 6.2048L299.216 5.47848L301.5 7.5163V3.09912L305.493 6.66258L303.018 8.87118L305.493 11.0798L301.5 14.6432V10.1814L299.216 12.2193L298.544 11.4929L301.5 8.85484ZM302.5 8.0071L304.007 6.66258L302.5 5.31807V8.0071ZM302.5 12.4243V9.73525L304.007 11.0798L302.5 12.4243Z" fill="black"/>
<path d="M13.253 48.221C10.941 48.221 9.377 47.116 8.782 44.804L10.023 44.447C10.465 46.181 11.468 47.031 13.253 47.031C14.868 47.031 16.143 46.3 16.143 44.804C16.143 44.005 15.956 43.07 13.304 42.577C10.89 42.135 9.207 41.251 9.207 39.194C9.207 37.103 11.009 35.845 13.236 35.845C15.463 35.845 16.738 37.086 17.265 39.109L16.024 39.466C15.684 38.021 14.902 37.035 13.236 37.035C11.655 37.035 10.533 37.817 10.533 39.194C10.533 40.486 11.604 40.928 13.542 41.302C16.126 41.812 17.469 42.781 17.469 44.804C17.469 46.895 15.616 48.221 13.253 48.221ZM21.8334 48.238C19.9124 48.238 18.9434 47.048 18.9434 45.722C18.9434 44.26 19.8614 43.359 22.1394 43.036L24.3664 42.713V42.441C24.3664 41.2 23.7034 40.52 22.3264 40.52C20.9324 40.52 20.3884 41.251 20.2524 42.237L19.0794 41.931C19.4024 40.35 20.5244 39.432 22.3264 39.432C24.3664 39.432 25.6584 40.469 25.6584 42.424V48H24.5704L24.4174 47.133C23.9584 47.779 23.1594 48.238 21.8334 48.238ZM22.1054 47.116C23.2614 47.116 24.3664 46.487 24.3664 44.991V43.767L22.2924 44.073C21.0344 44.26 20.2014 44.634 20.2014 45.654C20.2014 46.555 20.9324 47.116 22.1054 47.116ZM33.2767 39.67H34.5857L31.4067 48H30.0127L26.8167 39.67H28.1427L30.7097 46.521L33.2767 39.67ZM43.4851 44.192H36.7191C36.7871 45.841 37.9261 47.133 39.5921 47.133C40.9181 47.133 41.8361 46.368 42.1081 45.518L43.2471 45.875C42.8221 47.099 41.5981 48.238 39.5921 48.238C37.0421 48.238 35.4441 46.249 35.4441 43.835C35.4441 41.438 37.1951 39.432 39.5751 39.432C41.9041 39.449 43.4851 41.081 43.4851 43.631V44.192ZM42.2781 43.121C42.1761 41.676 41.1051 40.537 39.5921 40.537C37.9431 40.537 36.9401 41.71 36.7361 43.121H42.2781ZM58.6271 41.03V42.152H57.3861V44.6C57.3861 46.776 55.8051 48.255 53.7141 48.255C51.4361 48.255 49.8211 46.793 49.8211 44.6C49.8211 43.206 50.5521 42.084 51.7251 41.489C50.9601 40.945 50.5011 40.112 50.5011 39.092C50.5011 37.205 51.9801 35.879 53.9861 35.879C55.7711 35.879 56.9951 36.865 57.2671 38.31L56.0601 38.616C55.8731 37.613 55.0401 37.035 53.9861 37.035C52.7451 37.035 51.7931 37.8 51.7931 39.041C51.7931 40.299 52.7621 41.013 53.9861 41.013H56.1281V39.772H57.3861V41.03H58.6271ZM56.1281 44.6V42.135H53.8671C52.4221 42.135 51.1471 43.036 51.1471 44.6C51.1471 46.147 52.3711 47.065 53.7141 47.065C55.0401 47.065 56.1281 46.147 56.1281 44.6ZM72.6707 44.192H65.9047C65.9727 45.841 67.1117 47.133 68.7777 47.133C70.1037 47.133 71.0217 46.368 71.2937 45.518L72.4327 45.875C72.0077 47.099 70.7837 48.238 68.7777 48.238C66.2277 48.238 64.6297 46.249 64.6297 43.835C64.6297 41.438 66.3807 39.432 68.7607 39.432C71.0897 39.449 72.6707 41.081 72.6707 43.631V44.192ZM71.4637 43.121C71.3617 41.676 70.2907 40.537 68.7777 40.537C67.1287 40.537 66.1257 41.71 65.9217 43.121H71.4637ZM80.9329 48H79.4709L77.1249 44.719L74.7959 48H73.3509L76.3939 43.784L73.4359 39.67H74.8979L77.1419 42.832L79.3859 39.67H80.8479L77.9069 43.784L80.9329 48ZM83.2011 38.327C82.6401 38.327 82.2151 37.902 82.2151 37.358C82.2151 36.814 82.6401 36.389 83.2011 36.389C83.7281 36.389 84.1531 36.814 84.1531 37.358C84.1531 37.902 83.7281 38.327 83.2011 38.327ZM82.5551 48V39.67H83.8471V48H82.5551ZM89.0749 48.238C87.8339 48.238 87.0179 47.439 87.0179 46.079V40.843H85.4709V39.67H87.0179V37.494H88.3099V39.67H90.7069V40.843H88.3099V45.96C88.3099 46.742 88.6669 47.031 89.2789 47.031C89.6869 47.031 89.9929 46.844 90.1459 46.708L90.8089 47.609C90.6049 47.864 90.0269 48.238 89.0749 48.238Z" fill="#00C2B5"/>
<path d="M155.419 48L154.433 45.331H149.571L148.585 48H146.46L150.914 36.1H153.09L157.544 48H155.419ZM150.268 43.461H153.736L152.002 38.786L150.268 43.461ZM163.536 48.238C162.125 48.238 161.258 47.524 160.833 46.963L160.561 48H158.878V36.1H160.918V40.469C161.377 39.874 162.261 39.279 163.553 39.279C165.984 39.279 167.65 41.268 167.65 43.75C167.65 46.232 165.899 48.238 163.536 48.238ZM163.247 46.402C164.607 46.402 165.61 45.297 165.61 43.75C165.61 42.22 164.607 41.115 163.247 41.115C161.887 41.115 160.918 42.203 160.918 43.75C160.918 45.297 161.887 46.402 163.247 46.402ZM173.349 48.238C170.782 48.238 168.946 46.266 168.946 43.75C168.946 41.251 170.816 39.279 173.349 39.279C175.899 39.279 177.769 41.251 177.769 43.75C177.769 46.266 175.899 48.238 173.349 48.238ZM173.349 46.351C174.709 46.351 175.729 45.263 175.729 43.75C175.729 42.254 174.709 41.166 173.349 41.166C171.972 41.166 170.986 42.254 170.986 43.75C170.986 45.263 171.972 46.351 173.349 46.351ZM187.03 39.517V48H185.347L185.058 46.98C184.531 47.677 183.732 48.238 182.474 48.238C180.536 48.238 179.431 47.116 179.431 44.634V39.517H181.471V44.362C181.471 45.875 182.168 46.334 183.12 46.334C184.157 46.334 184.99 45.603 184.99 44.158V39.517H187.03ZM192.255 48.238C190.946 48.238 189.858 47.388 189.858 45.722V41.302H188.396V39.517H189.858V37.307H191.898V39.517H194.057V41.302H191.898V45.433C191.898 46.062 192.187 46.334 192.697 46.334C193.071 46.334 193.326 46.181 193.479 46.045L194.329 47.49C194.091 47.779 193.428 48.238 192.255 48.238ZM206.094 39.517H208.134V47.677C208.134 50.057 206.655 51.638 204.088 51.638C201.946 51.638 200.79 50.448 200.382 48.935L202.286 48.544C202.456 49.377 203.017 49.887 204.088 49.887C205.329 49.887 206.094 49.122 206.094 47.694V46.793L206.077 46.742C205.499 47.439 204.802 47.915 203.51 47.915C201.657 47.915 200.416 46.827 200.416 44.345V39.517H202.456V44.005C202.456 45.535 203.136 46.011 204.156 46.011C205.261 46.011 206.094 45.28 206.094 43.852V39.517ZM214.139 48.238C211.572 48.238 209.736 46.266 209.736 43.75C209.736 41.251 211.606 39.279 214.139 39.279C216.689 39.279 218.559 41.251 218.559 43.75C218.559 46.266 216.689 48.238 214.139 48.238ZM214.139 46.351C215.499 46.351 216.519 45.263 216.519 43.75C216.519 42.254 215.499 41.166 214.139 41.166C212.762 41.166 211.776 42.254 211.776 43.75C211.776 45.263 212.762 46.351 214.139 46.351ZM227.82 39.517V48H226.137L225.848 46.98C225.321 47.677 224.522 48.238 223.264 48.238C221.326 48.238 220.221 47.116 220.221 44.634V39.517H222.261V44.362C222.261 45.875 222.958 46.334 223.91 46.334C224.947 46.334 225.78 45.603 225.78 44.158V39.517H227.82Z" fill="#006179"/>
<path fill-rule="evenodd" clip-rule="evenodd" d="M363 49.2499V42C363 37.5817 359.418 34 355 34C350.582 34 347 37.5817 347 42C347 46.4183 350.582 50 355 50H362.25C362.664 50 363 49.6642 363 49.2499ZM355.847 46.0095C355.847 46.4773 355.468 46.8566 355 46.8566C354.533 46.8566 354.153 46.4773 354.153 46.0095C354.153 45.5417 354.533 45.1625 355 45.1625C355.468 45.1625 355.847 45.5417 355.847 46.0095ZM353.495 40.0864C353.495 40.0871 353.495 40.0867 353.495 40.0864C353.447 40.496 353.078 40.791 352.667 40.7454C352.255 40.6997 351.959 40.3289 352.005 39.9172L352.75 40C352.005 39.9172 352.005 39.9175 352.005 39.9172L352.005 39.9158L352.005 39.9142L352.005 39.9104L352.007 39.9002L352.011 39.8702C352.014 39.8461 352.019 39.8137 352.026 39.7743C352.04 39.6957 352.061 39.5878 352.094 39.4602C352.16 39.208 352.274 38.8631 352.469 38.5108C352.87 37.7895 353.648 37 355 37C356.166 37 356.993 37.3744 357.485 38.0641C357.941 38.7014 358 39.4664 358 40C358 41.0361 357.409 42.0818 356.25 42.5295C356.08 42.5953 355.94 42.6903 355.852 42.787C355.769 42.8784 355.75 42.9483 355.75 43V43.25C355.75 43.6642 355.414 44 355 44C354.586 44 354.25 43.6642 354.25 43.25V43C354.25 41.989 355.075 41.3755 355.709 41.1303C356.244 40.9236 356.5 40.4665 356.5 40C356.5 39.5336 356.434 39.1736 356.265 38.9359C356.132 38.7506 355.834 38.5 355 38.5C354.352 38.5 354.005 38.8355 353.781 39.2392C353.664 39.4494 353.59 39.667 353.546 39.8367C353.525 39.92 353.511 39.9879 353.503 40.0323C353.5 40.0544 353.497 40.0704 353.496 40.0793L353.495 40.0864Z" fill="#00C2B5"/>
<rect y="64" width="62.5" height="4" fill="#69D676"/>
<rect x="62.5" y="64" width="62.5" height="4" fill="#EBF3F5"/>
<rect x="125" y="64" width="62.5" height="4" fill="#EBF3F5"/>
<rect x="187.5" y="64" width="62.5" height="4" fill="#EBF3F5"/>
<rect x="250" y="64" width="62.5" height="4" fill="#EBF3F5"/>
<rect x="312.5" y="64" width="62.5" height="4" fill="#EBF3F5"/>
<defs>
<clipPath id="clip0_1_5092">
<rect width="85" height="16" fill="white" transform="translate(4 2)"/>
</clipPath>
</defs>
</svg>
