<svg width="64" height="64" viewBox="0 0 64 64" fill="none" xmlns="http://www.w3.org/2000/svg">
<path d="M43.8419 56.9275L45.3144 55.0869C46.6083 53.4696 49.356 53.6 50.4491 55.3301C51.7637 57.412 55.0112 56.9981 55.9117 55.0832C55.9587 54.9837 55.8413 55.2328 55.9416 54.3712C56.0416 53.5096 56 53.3128 55.9165 52.9195L50.7883 28.7043C49.4995 22.6185 48.8549 19.5756 46.6381 17.7878C44.4216 16 41.2928 16 35.0357 16H28.9643C22.7071 16 19.5785 16 17.3618 17.7878C15.145 19.5756 14.5006 22.6185 13.2117 28.7043L8.08347 52.9195C8.00011 53.3128 7.95843 53.5096 8.05851 54.3712C8.15856 55.2328 8.04144 54.9837 8.08827 55.0832C8.98891 56.9981 12.2362 57.412 13.5511 55.3301C14.6441 53.6 17.3917 53.4696 18.6856 55.0869L20.1582 56.9275C22.0137 59.2464 25.8885 59.2464 27.744 56.9275L27.9755 56.6379C29.9443 54.1773 34.0557 54.1773 36.0245 56.6379L36.256 56.9275C38.1115 59.2464 41.9864 59.2464 43.8419 56.9275Z" stroke="#BDBDBD" stroke-width="4" stroke-linejoin="round"/>
<path d="M6.62228 25.3333C5.06146 23.712 5.3553 21.6238 5.3553 16.4047C5.3553 11.1856 5.3553 8.57605 6.91612 6.95469C8.47695 5.33333 10.9891 5.33333 16.0132 5.33333H47.9872C53.0112 5.33333 55.5235 5.33333 57.0843 6.95469C58.6451 8.57605 58.6451 11.1856 58.6451 16.4047C58.6451 21.6238 58.9371 23.712 57.3763 25.3333" stroke="#BDBDBD" stroke-width="4" stroke-linecap="round"/>
<path d="M32 26.6667H24" stroke="#BDBDBD" stroke-width="4" stroke-linecap="round" stroke-linejoin="round"/>
<path d="M37.3333 37.3333H21.3333" stroke="#BDBDBD" stroke-width="4" stroke-linecap="round" stroke-linejoin="round"/>
</svg>
