<svg width="512" height="512" viewBox="0 0 512 512" fill="none" xmlns="http://www.w3.org/2000/svg">
<rect width="512" height="512" fill="black"/>
<path d="M113.54 332.069C104.546 332.069 96.7668 330.356 90.2004 326.931C83.7768 323.505 78.7807 318.58 75.212 312.156C71.7861 305.733 70.0732 298.096 70.0732 289.245H88.2734C88.2734 294.242 89.0585 298.809 90.6287 302.949C92.3416 306.946 94.9824 310.158 98.5511 312.585C102.263 314.868 107.187 316.01 113.325 316.01C119.321 316.01 124.031 314.868 127.457 312.585C131.026 310.301 133.524 307.232 134.952 303.377C136.522 299.38 137.307 294.884 137.307 289.888V179.616H155.293V289.888C155.293 303.306 151.582 313.726 144.159 321.149C136.879 328.429 126.672 332.069 113.54 332.069ZM236.195 332.069C225.204 332.069 215.64 330.071 207.503 326.074C199.367 322.077 193.086 316.51 188.661 309.373C184.235 302.235 182.023 293.956 182.023 284.535H200.865C200.865 290.387 202.221 295.812 204.934 300.808C207.646 305.661 211.571 309.587 216.71 312.585C221.992 315.439 228.487 316.867 236.195 316.867C242.904 316.867 248.614 315.796 253.325 313.655C258.178 311.371 261.818 308.302 264.245 304.448C266.814 300.594 268.099 296.24 268.099 291.387C268.099 285.962 266.886 281.466 264.459 277.897C262.175 274.186 258.963 271.188 254.824 268.904C250.684 266.477 245.902 264.336 240.478 262.48C235.053 260.625 229.201 258.698 222.92 256.699C210.358 252.702 201.222 247.706 195.512 241.711C189.945 235.573 187.162 227.722 187.162 218.158C187.162 210.021 189.017 202.884 192.729 196.746C196.583 190.607 202.007 185.825 209.002 182.4C216.139 178.831 224.561 177.047 234.268 177.047C243.832 177.047 252.111 178.831 259.106 182.4C266.243 185.968 271.81 190.893 275.807 197.174C279.804 203.312 281.803 210.449 281.803 218.586H262.96C262.96 214.446 261.89 210.378 259.748 206.381C257.607 202.384 254.324 199.101 249.899 196.531C245.616 193.819 240.192 192.463 233.626 192.463C228.201 192.32 223.348 193.248 219.066 195.247C214.926 197.102 211.643 199.815 209.216 203.383C206.932 206.952 205.79 211.306 205.79 216.445C205.79 221.298 206.789 225.224 208.788 228.221C210.929 231.219 213.927 233.788 217.781 235.93C221.778 237.928 226.417 239.784 231.699 241.497C236.98 243.21 242.833 245.137 249.256 247.278C256.537 249.705 262.96 252.702 268.527 256.271C274.237 259.697 278.662 264.122 281.803 269.546C285.086 274.971 286.727 281.894 286.727 290.316C286.727 297.453 284.8 304.234 280.946 310.657C277.235 316.938 271.668 322.077 264.245 326.074C256.822 330.071 247.472 332.069 236.195 332.069ZM376.859 332.069C362.727 332.069 350.45 328.858 340.03 322.434C329.752 315.868 321.758 306.803 316.049 295.241C310.481 283.536 307.698 269.975 307.698 254.558C307.698 239.141 310.481 225.652 316.049 214.089C321.758 202.384 329.752 193.32 340.03 186.896C350.45 180.33 362.727 177.047 376.859 177.047C393.845 177.047 407.621 181.115 418.184 189.251C428.747 197.388 435.527 208.879 438.525 223.725H419.04C416.614 214.446 411.903 207.023 404.908 201.456C398.056 195.746 388.707 192.891 376.859 192.891C366.581 192.891 357.588 195.39 349.879 200.386C342.314 205.239 336.461 212.305 332.322 221.584C328.182 230.719 326.112 241.711 326.112 254.558C326.112 267.405 328.182 278.468 332.322 287.747C336.461 296.882 342.314 303.948 349.879 308.944C357.588 313.798 366.581 316.225 376.859 316.225C388.707 316.225 398.056 313.512 404.908 308.088C411.903 302.521 416.614 295.169 419.04 286.034H438.525C435.527 300.451 428.747 311.728 418.184 319.865C407.621 328.001 393.845 332.069 376.859 332.069Z" fill="white"/>
</svg>
